<mxfile host="app.diagrams.net" modified="2021-04-22T13:01:44.323Z" agent="5.0 (Macintosh; Intel Mac OS X 10_15_7) AppleWebKit/605.1.15 (KHTML, like Gecko) Version/13.1.3 Safari/605.1.15" etag="_u70p0TKIg4hu-eXxwA5" version="14.6.5" type="github">
  <diagram id="vI6uV2-JK-o7PAQ5oVxJ" name="Page-1">
    <mxGraphModel dx="924" dy="716" grid="1" gridSize="10" guides="1" tooltips="1" connect="1" arrows="1" fold="1" page="1" pageScale="1" pageWidth="827" pageHeight="1169" math="0" shadow="0">
      <root>
        <mxCell id="0" />
        <mxCell id="1" parent="0" />
        <mxCell id="6QPseZAfOy5Gbp6yAe0V-1" value="Actor" style="shape=umlActor;verticalLabelPosition=bottom;verticalAlign=top;html=1;outlineConnect=0;" parent="1" vertex="1">
          <mxGeometry x="30" y="80" width="30" height="60" as="geometry" />
        </mxCell>
        <mxCell id="6QPseZAfOy5Gbp6yAe0V-2" value="创建活动" style="rounded=0;whiteSpace=wrap;html=1;" parent="1" vertex="1">
          <mxGeometry x="120" y="80" width="130" height="60" as="geometry" />
        </mxCell>
        <mxCell id="6QPseZAfOy5Gbp6yAe0V-3" value="" style="shape=cylinder3;whiteSpace=wrap;html=1;boundedLbl=1;backgroundOutline=1;size=15;" parent="1" vertex="1">
          <mxGeometry x="314" y="70" width="60" height="80" as="geometry" />
        </mxCell>
        <mxCell id="6QPseZAfOy5Gbp6yAe0V-4" value="" style="endArrow=classic;html=1;exitX=0.5;exitY=0.5;exitDx=0;exitDy=0;exitPerimeter=0;entryX=0;entryY=0.5;entryDx=0;entryDy=0;" parent="1" source="6QPseZAfOy5Gbp6yAe0V-1" target="6QPseZAfOy5Gbp6yAe0V-2" edge="1">
          <mxGeometry width="50" height="50" relative="1" as="geometry">
            <mxPoint x="60" y="160" as="sourcePoint" />
            <mxPoint x="110" y="110" as="targetPoint" />
          </mxGeometry>
        </mxCell>
        <mxCell id="6QPseZAfOy5Gbp6yAe0V-5" value="" style="endArrow=classic;html=1;exitX=1;exitY=0.5;exitDx=0;exitDy=0;" parent="1" source="6QPseZAfOy5Gbp6yAe0V-2" target="6QPseZAfOy5Gbp6yAe0V-3" edge="1">
          <mxGeometry width="50" height="50" relative="1" as="geometry">
            <mxPoint x="350" y="430" as="sourcePoint" />
            <mxPoint x="400" y="380" as="targetPoint" />
            <Array as="points">
              <mxPoint x="270" y="110" />
            </Array>
          </mxGeometry>
        </mxCell>
        <mxCell id="6QPseZAfOy5Gbp6yAe0V-6" value="dh_spread" style="text;html=1;strokeColor=none;fillColor=none;align=center;verticalAlign=middle;whiteSpace=wrap;rounded=0;" parent="1" vertex="1">
          <mxGeometry x="334" y="160" width="40" height="20" as="geometry" />
        </mxCell>
        <mxCell id="bOnf_4Z3-WcjZZRoOKP8-1" value="Actor" style="shape=umlActor;verticalLabelPosition=bottom;verticalAlign=top;html=1;outlineConnect=0;" vertex="1" parent="1">
          <mxGeometry x="30" y="270" width="30" height="60" as="geometry" />
        </mxCell>
        <mxCell id="bOnf_4Z3-WcjZZRoOKP8-2" value="活动" style="rounded=0;whiteSpace=wrap;html=1;" vertex="1" parent="1">
          <mxGeometry x="120" y="270" width="130" height="60" as="geometry" />
        </mxCell>
        <mxCell id="bOnf_4Z3-WcjZZRoOKP8-3" value="" style="shape=cylinder3;whiteSpace=wrap;html=1;boundedLbl=1;backgroundOutline=1;size=15;" vertex="1" parent="1">
          <mxGeometry x="314" y="260" width="60" height="80" as="geometry" />
        </mxCell>
        <mxCell id="bOnf_4Z3-WcjZZRoOKP8-4" value="" style="endArrow=classic;html=1;exitX=0.5;exitY=0.5;exitDx=0;exitDy=0;exitPerimeter=0;entryX=0;entryY=0.5;entryDx=0;entryDy=0;" edge="1" parent="1" source="bOnf_4Z3-WcjZZRoOKP8-1" target="bOnf_4Z3-WcjZZRoOKP8-2">
          <mxGeometry width="50" height="50" relative="1" as="geometry">
            <mxPoint x="60" y="350" as="sourcePoint" />
            <mxPoint x="110" y="300" as="targetPoint" />
          </mxGeometry>
        </mxCell>
        <mxCell id="bOnf_4Z3-WcjZZRoOKP8-5" value="" style="endArrow=classic;html=1;exitX=1;exitY=0.5;exitDx=0;exitDy=0;" edge="1" parent="1" source="bOnf_4Z3-WcjZZRoOKP8-2" target="bOnf_4Z3-WcjZZRoOKP8-3">
          <mxGeometry width="50" height="50" relative="1" as="geometry">
            <mxPoint x="350" y="620" as="sourcePoint" />
            <mxPoint x="400" y="570" as="targetPoint" />
            <Array as="points">
              <mxPoint x="270" y="300" />
            </Array>
          </mxGeometry>
        </mxCell>
        <mxCell id="bOnf_4Z3-WcjZZRoOKP8-6" value="dh_spread" style="text;html=1;strokeColor=none;fillColor=none;align=center;verticalAlign=middle;whiteSpace=wrap;rounded=0;" vertex="1" parent="1">
          <mxGeometry x="334" y="350" width="40" height="20" as="geometry" />
        </mxCell>
        <mxCell id="bOnf_4Z3-WcjZZRoOKP8-7" value="Actor" style="shape=umlActor;verticalLabelPosition=bottom;verticalAlign=top;html=1;outlineConnect=0;" vertex="1" parent="1">
          <mxGeometry x="30" y="485" width="30" height="60" as="geometry" />
        </mxCell>
        <mxCell id="bOnf_4Z3-WcjZZRoOKP8-8" value="发放验证码&amp;nbsp;" style="rounded=0;whiteSpace=wrap;html=1;" vertex="1" parent="1">
          <mxGeometry x="120" y="485" width="130" height="60" as="geometry" />
        </mxCell>
        <mxCell id="bOnf_4Z3-WcjZZRoOKP8-9" value="" style="shape=cylinder3;whiteSpace=wrap;html=1;boundedLbl=1;backgroundOutline=1;size=15;" vertex="1" parent="1">
          <mxGeometry x="314" y="475" width="60" height="80" as="geometry" />
        </mxCell>
        <mxCell id="bOnf_4Z3-WcjZZRoOKP8-10" value="" style="endArrow=classic;html=1;exitX=0.5;exitY=0.5;exitDx=0;exitDy=0;exitPerimeter=0;entryX=0;entryY=0.5;entryDx=0;entryDy=0;" edge="1" parent="1" source="bOnf_4Z3-WcjZZRoOKP8-7" target="bOnf_4Z3-WcjZZRoOKP8-8">
          <mxGeometry width="50" height="50" relative="1" as="geometry">
            <mxPoint x="60" y="565" as="sourcePoint" />
            <mxPoint x="110" y="515" as="targetPoint" />
          </mxGeometry>
        </mxCell>
        <mxCell id="bOnf_4Z3-WcjZZRoOKP8-11" value="" style="endArrow=classic;html=1;exitX=1;exitY=0.5;exitDx=0;exitDy=0;" edge="1" parent="1" source="bOnf_4Z3-WcjZZRoOKP8-8" target="bOnf_4Z3-WcjZZRoOKP8-9">
          <mxGeometry width="50" height="50" relative="1" as="geometry">
            <mxPoint x="350" y="835" as="sourcePoint" />
            <mxPoint x="400" y="785" as="targetPoint" />
            <Array as="points">
              <mxPoint x="270" y="515" />
            </Array>
          </mxGeometry>
        </mxCell>
        <mxCell id="bOnf_4Z3-WcjZZRoOKP8-12" value="dh_spread" style="text;html=1;strokeColor=none;fillColor=none;align=center;verticalAlign=middle;whiteSpace=wrap;rounded=0;" vertex="1" parent="1">
          <mxGeometry x="334" y="565" width="40" height="20" as="geometry" />
        </mxCell>
        <mxCell id="bOnf_4Z3-WcjZZRoOKP8-13" value="Actor" style="shape=umlActor;verticalLabelPosition=bottom;verticalAlign=top;html=1;outlineConnect=0;" vertex="1" parent="1">
          <mxGeometry x="30" y="610" width="30" height="60" as="geometry" />
        </mxCell>
        <mxCell id="bOnf_4Z3-WcjZZRoOKP8-14" value="企业验证&amp;nbsp;" style="rounded=0;whiteSpace=wrap;html=1;" vertex="1" parent="1">
          <mxGeometry x="120" y="610" width="130" height="60" as="geometry" />
        </mxCell>
        <mxCell id="bOnf_4Z3-WcjZZRoOKP8-15" value="" style="shape=cylinder3;whiteSpace=wrap;html=1;boundedLbl=1;backgroundOutline=1;size=15;" vertex="1" parent="1">
          <mxGeometry x="314" y="600" width="60" height="80" as="geometry" />
        </mxCell>
        <mxCell id="bOnf_4Z3-WcjZZRoOKP8-16" value="" style="endArrow=classic;html=1;exitX=0.5;exitY=0.5;exitDx=0;exitDy=0;exitPerimeter=0;entryX=0;entryY=0.5;entryDx=0;entryDy=0;" edge="1" parent="1" source="bOnf_4Z3-WcjZZRoOKP8-13" target="bOnf_4Z3-WcjZZRoOKP8-14">
          <mxGeometry width="50" height="50" relative="1" as="geometry">
            <mxPoint x="60" y="690" as="sourcePoint" />
            <mxPoint x="110" y="640" as="targetPoint" />
          </mxGeometry>
        </mxCell>
        <mxCell id="bOnf_4Z3-WcjZZRoOKP8-17" value="" style="endArrow=classic;html=1;exitX=1;exitY=0.5;exitDx=0;exitDy=0;" edge="1" parent="1" source="bOnf_4Z3-WcjZZRoOKP8-14" target="bOnf_4Z3-WcjZZRoOKP8-15">
          <mxGeometry width="50" height="50" relative="1" as="geometry">
            <mxPoint x="350" y="960" as="sourcePoint" />
            <mxPoint x="400" y="910" as="targetPoint" />
            <Array as="points">
              <mxPoint x="270" y="640" />
            </Array>
          </mxGeometry>
        </mxCell>
        <mxCell id="bOnf_4Z3-WcjZZRoOKP8-18" value="dh_spread" style="text;html=1;strokeColor=none;fillColor=none;align=center;verticalAlign=middle;whiteSpace=wrap;rounded=0;" vertex="1" parent="1">
          <mxGeometry x="334" y="690" width="40" height="20" as="geometry" />
        </mxCell>
      </root>
    </mxGraphModel>
  </diagram>
</mxfile>
